<?xml version="1.0" encoding="UTF-8"?>
<svg version="1.1" xmlns="http://www.w3.org/2000/svg" width="8334" height="8334">
<path d="M0 0 C1.58984375 1.68408203 1.58984375 1.68408203 2.9375 3.8828125 C3.69546875 5.10919434 3.69546875 5.10919434 4.46875 6.36035156 C7.05883631 10.82527713 9.56717527 15.32234331 12 19.875 C12.55469971 20.90584717 13.10939941 21.93669434 13.6809082 22.9987793 C19.1305558 33.16530391 24.43297553 43.4077484 29.71875 53.66015625 C32.10331913 58.28129152 34.52319312 62.88137528 36.97192383 67.46875 C42.39094155 77.63852336 47.38378854 87.98624474 52.29931641 98.40722656 C53.87298813 101.73168149 55.45711729 105.05086122 57.04533386 108.36837769 C67.75591979 130.74433034 78.08882496 153.25870547 88 176 C88.46282379 177.06036469 88.46282379 177.06036469 88.93499756 178.14215088 C118.16001756 245.12522625 144.31856703 313.39837532 168.1307373 382.4833374 C169.00720714 385.02086589 169.88815171 387.5567979 170.77050781 390.09228516 C200.24567844 474.82593722 225.17778197 561.14554037 255 681 C255.40611511 682.66443146 255.40611511 682.66443146 255.82043457 684.36248779 C275.07559376 763.30685512 291.04489829 843.10157716 329 1089 C329.16181763 1090.27742065 329.32363525 1091.55484131 329.49035645 1092.87097168 C342.7528659 1198.1098454 352.19682308 1304.02092977 292 2319 C291.74816956 2319.90184021 291.49633911 2320.80368042 291.23687744 2321.73284912 C263.44592228 2421.06583229 229.10380837 2518.45593943 179 2635 C178.51789063 2636.09779785 178.03578125 2637.1955957 177.5390625 2638.32666016 C165.16426301 2666.46678697 152.3911478 2694.41200756 138.9152832 2722.04199219 C137.44882597 2725.06187275 136.00156016 2728.0905494 134.55932617 2731.12207031 C128.32912138 2744.2165235 121.96145329 2757.23450899 115.46557617 2770.19921875 C113.93172618 2773.26152734 112.40220398 2776.3259708 110.87304688 2779.390625 C105.0968491 2790.94730517 99.20701953 2802.4342845 93.1446228 2813.84338379 C91.68695823 2816.58981085 90.23885786 2819.34121891 88.79078674 2822.0927124 C81.59703239 2835.75338962 74.33394182 2849.35827363 66.67041016 2862.76293945 C62.86208696 2869.43314921 59.19198547 2876.16854238 55.5625 2882.9375 C50.63896741 2892.10041106 45.50130812 2901.11547472 40.22412109 2910.07885742 C36.29432167 2916.75756186 32.46708968 2923.48538013 28.6875 2930.25 C23.54744266 2939.41864433 18.15756233 2948.42241337 12.671875 2957.3868103 C7.4406449 2965.93551018 2.31388016 2974.53693067 -2.72772217 2983.19882202 C-9.08654668 2994.12345642 -15.61440838 3004.90750801 -22.43847656 3015.54931641 C-25.49376632 3020.34434432 -28.49199948 3025.17522627 -31.5 3030 C-37.96571588 3040.35525446 -44.45680253 3050.69352416 -51 3061 C-51.88244385 3062.3924292 -51.88244385 3062.3924292 -52.78271484 3063.81298828 C-61.98574674 3078.32188628 -71.38888994 3092.68441203 -80.95509338 3106.95602417 C-84.6179298 3112.42290865 -88.2648591 3117.90031553 -91.91015625 3123.37890625 C-93.14353082 3125.2318681 -94.37692944 3127.08481394 -95.61035156 3128.93774414 C-97.43455273 3131.67819859 -99.25851169 3134.4188117 -101.0814209 3137.16012573 C-108.82425247 3148.80203579 -116.64393285 3160.38693841 -124.56359863 3171.90933228 C-126.44400035 3174.64623803 -128.32013621 3177.3860551 -130.19598389 3180.12608337 C-137.0564801 3190.13579389 -144.02406222 3200.07055625 -151 3210 C-151.52239258 3210.74427246 -152.04478516 3211.48854492 -152.58300781 3212.25537109 C-159.28604161 3221.80126714 -166.07370746 3231.2825552 -172.9140625 3240.73046875 C-175.62470166 3244.47615505 -178.31704723 3248.23445225 -181 3252 C-190.95815334 3265.96328293 -201.04944855 3279.82518487 -211.24267578 3293.61767578 C-212.9775979 3295.9696305 -214.70655144 3298.32584839 -216.43359375 3300.68359375 C-223.20340727 3309.91760785 -230.07388198 3319.06565742 -237.03417969 3328.15698242 C-241.46404691 3333.95338554 -245.81786569 3339.7994654 -250.125 3345.6875 C-256.39911834 3354.25689699 -262.8885068 3362.64416678 -269.43945312 3371.00292969 C-271.64290084 3373.82273605 -273.82220435 3376.66032528 -276 3379.5 C-281.08843198 3386.12660177 -286.21810024 3392.7207465 -291.3515625 3399.3125 C-293.76671406 3402.41381821 -296.17804537 3405.51804241 -298.5859375 3408.625 C-304.55980525 3416.32916144 -310.56792283 3424.00112544 -316.67456055 3431.60058594 C-319.95911102 3435.68972821 -323.20746566 3439.80520511 -326.4375 3443.9375 C-330.94315435 3449.69703644 -335.54203532 3455.37623318 -340.16601562 3461.04101562 C-343.63882329 3465.30291094 -347.05806031 3469.60132111 -350.4375 3473.9375 C-356.28879055 3481.43669181 -362.35128867 3488.75805299 -368.41650391 3496.08447266 C-371.96286877 3500.37444779 -375.47864741 3504.68949306 -379 3509 C-381.25210612 3511.75301238 -383.50464258 3514.50567069 -385.7578125 3517.2578125 C-387.2340486 3519.06324411 -388.70806736 3520.87049141 -390.1796875 3522.6796875 C-394.69784103 3528.22688668 -399.28120407 3533.71193861 -403.91357422 3539.16357422 C-406.81219839 3542.58020732 -409.67140579 3546.02486997 -412.5 3549.5 C-416.24852646 3554.1053325 -420.07084246 3558.64204444 -423.91625977 3563.16625977 C-426.7954532 3566.55954109 -429.63204237 3569.98267786 -432.4375 3573.4375 C-437.33440008 3579.44970829 -442.38622674 3585.32341247 -447.44726562 3591.19726562 C-449.98962332 3594.1489589 -452.52653507 3597.10531397 -455.0625 3600.0625 C-455.80850464 3600.93225464 -455.80850464 3600.93225464 -456.56958008 3601.81958008 C-459.89491345 3605.70031083 -463.20254261 3609.59556861 -466.5 3613.5 C-475.48439264 3624.13580497 -484.57226679 3634.68172921 -493.69921875 3645.1953125 C-495.93459084 3647.77034417 -498.16606136 3650.34868046 -500.39453125 3652.9296875 C-505.13278472 3658.41410102 -509.87173689 3663.88899211 -514.75 3669.25 C-517.7007488 3672.50010013 -520.50297627 3675.82617333 -523.25 3679.25 C-527.90658812 3685.00946426 -532.92834177 3690.37948699 -537.9921875 3695.77734375 C-540.8422557 3698.81794331 -543.60488811 3701.92348424 -546.328125 3705.078125 C-548.35758073 3707.41105074 -550.427647 3709.70511245 -552.5 3712 C-555.17048344 3714.95869751 -557.82298058 3717.92926472 -560.4375 3720.9375 C-564.09178862 3725.13442081 -567.84744973 3729.2365276 -571.59765625 3733.34765625 C-573.56941844 3735.52460996 -575.51365337 3737.71838674 -577.4375 3739.9375 C-580.86836233 3743.88745261 -584.41130271 3747.731871 -587.95507812 3751.58007812 C-590.48725408 3754.3345576 -592.99027735 3757.10733787 -595.4375 3759.9375 C-599.01937309 3764.069109 -602.73837958 3768.06929927 -606.45458984 3772.07958984 C-609.51572416 3775.38523286 -612.55417951 3778.70851971 -615.5625 3782.0625 C-618.94093036 3785.8286191 -622.33664566 3789.57805068 -625.75 3793.3125 C-626.63171875 3794.27800781 -627.5134375 3795.24351562 -628.421875 3796.23828125 C-635.59572377 3803.922995 -635.59572377 3803.922995 -638.625 3804.5 C-641.44107123 3803.9071429 -642.25554113 3803.25195911 -644 3801 C-644.43928056 3795.33304552 -642.45836948 3789.47252561 -640.734375 3784.12890625 C-640.25804946 3782.59697114 -639.78215982 3781.06490044 -639.30664062 3779.53271484 C-639.05374268 3778.72711121 -638.80084473 3777.92150757 -638.5402832 3777.0914917 C-605.24056673 3670.52879846 -587.57693304 3558.97787823 -555.70068359 3125.51391602 C-555.6713435 3124.4851297 -555.6420034 3123.45634339 -555.61177421 3122.39638174 C-554.99929872 3100.79806586 -554.50512333 3079.19809674 -554.06822014 3057.59558249 C-554.00613357 3054.53039298 -553.94338186 3051.46521758 -553.88053894 3048.40004349 C-552.88160845 2999.53673778 -552.1596571 2950.66973068 -551.45572662 2901.80145264 C-550.77156723 2854.31265877 -550.04993341 2806.82589169 -549.05515862 2759.34242105 C-548.99389303 2756.41356558 -548.93323006 2753.48469814 -548.87266541 2750.55582809 C-548.43317703 2729.39566523 -547.91706651 2708.23875425 -547.29931641 2687.08300781 C-547.27143217 2686.12724873 -547.24354793 2685.17148965 -547.21481872 2684.18676817 C-544.76624836 2600.75743985 -541.06726906 2517.31394375 -435.85961914 1964.93408203 C-435.59793945 1964.29350357 -435.33625977 1963.65292511 -435.06665039 1962.99293518 C-434.37029237 1961.2917952 -433.66324927 1959.59503982 -432.95532227 1957.89868164 C-432.01934983 1955.05871212 -431.7971716 1952.96307325 -432 1950 C-437.63035047 1949.35824273 -440.61503567 1951.33644189 -444.875 1954.6875 C-445.51993408 1955.17863281 -446.16486816 1955.66976562 -446.8293457 1956.17578125 C-448.90121369 1957.76556982 -450.95238945 1959.37911514 -453 1961 C-453.6801416 1961.53447754 -454.3602832 1962.06895508 -455.06103516 1962.61962891 C-463.51703645 1969.28906605 -471.64979645 1976.21941876 -479.49511719 1983.59667969 C-481.11078843 1985.10331147 -482.74461269 1986.58822021 -484.3828125 1988.0703125 C-489.5991574 1992.80107173 -494.68779368 1997.48403382 -499.2109375 2002.8984375 C-501.02665762 2005.03131397 -502.92340033 2007.07443899 -504.83959961 2009.11694336 C-510.86352645 2015.55796743 -516.34396251 2022.32301461 -521.703125 2029.32226562 C-522.87608363 2030.83969253 -524.07710995 2032.33532123 -525.28125 2033.828125 C-545.80376657 2059.5515533 -562.27964174 2088.67922373 -577 2118 C-577.55155762 2119.09376953 -578.10311523 2120.18753906 -578.67138672 2121.31445312 C-616.27964242 2196.29757055 -638.21958188 2278.45160239 -700.18554688 2729.9465332 C-700.25851266 2730.93994996 -700.33147844 2731.93336671 -700.40665531 2732.95688701 C-702.13279062 2756.50880601 -703.72725317 2780.06898408 -705.28125 2803.6328125 C-705.354715 2804.74428154 -705.42817999 2805.85575058 -705.5038712 2807.00090051 C-708.8497134 2857.62726899 -711.86858035 2908.27162976 -714.83634788 2958.92134374 C-716.41808891 2985.91334123 -718.02022882 3012.90412682 -719.62890625 3039.89453125 C-719.70363537 3041.14847813 -719.77836449 3042.402425 -719.85535812 3043.69437027 C-723.26083344 3100.81758125 -726.78972314 3157.92946192 -731 3215 C-731.07855728 3216.06495697 -731.15711456 3217.12991394 -731.23805237 3218.22714233 C-737.98077164 3309.45216775 -746.22497644 3400.50720828 -798 3750 C-798.23914124 3751.19913025 -798.47828247 3752.3982605 -798.72467041 3753.63372803 C-814.19893785 3830.97073372 -833.04831871 3907.83272776 -857 3983 C-857.31710937 3983.99561951 -857.63421875 3984.99123901 -857.9609375 3986.01702881 C-876.13208576 4042.97356831 -896.17277527 4099.14108794 -920 4154 C-920.27652405 4154.63707886 -920.5530481 4155.27415771 -920.83795166 4155.93054199 C-928.58683302 4173.75969203 -936.73248983 4191.40630349 -945 4209 C-945.73331543 4210.56355225 -945.73331543 4210.56355225 -946.48144531 4212.15869141 C-951.85041549 4223.58284983 -957.39931271 4234.87412068 -963.34765625 4246.0078125 C-965.28313821 4249.63253563 -967.17984653 4253.27523435 -969.05859375 4256.9296875 C-976.37357302 4271.15338163 -983.993405 4285.15409005 -992 4299 C-992.65516602 4300.1348584 -993.31033203 4301.2697168 -993.98535156 4302.43896484 C-1007.96228044 4326.6170313 -1022.71069382 4350.19096322 -1038.1875 4373.4375 C-1039.0776329 4374.77559219 -1039.0776329 4374.77559219 -1039.98574829 4376.14071655 C-1050.04225483 4391.24155606 -1060.32377949 4406.16991722 -1071.125 4420.75 C-1071.71063721 4421.54237061 -1072.29627441 4422.33474121 -1072.8996582 4423.15112305 C-1077.85079457 4429.83281946 -1082.88403388 4436.44361624 -1088 4443 C-1088.42313477 4443.54398438 -1088.84626953 4444.08796875 -1089.28222656 4444.6484375 C-1098.97809337 4457.10737516 -1108.87470978 4469.40551413 -1119.11938477 4481.41821289 C-1121.94686695 4484.73698236 -1124.70622288 4488.10184014 -1127.4375 4491.5 C-1131.8145112 4496.88285937 -1136.49554127 4501.94271342 -1141.2265625 4507.01171875 C-1143.36354314 4509.3035841 -1145.45223348 4511.62758757 -1147.5 4514 C-1154.15738541 4521.68536404 -1161.06450132 4529.18734943 -1168.33178711 4536.29931641 C-1169.94803385 4537.94702236 -1171.43235968 4539.65167718 -1172.921875 4541.4140625 C-1177.6251142 4546.81811344 -1182.69685735 4551.84664488 -1187.76977539 4556.90014648 C-1189.43426277 4558.5592732 -1191.09333447 4560.22368051 -1192.75195312 4561.88867188 C-1197.82076203 4566.96032156 -1202.92286803 4571.93815472 -1208.37915039 4576.59741211 C-1210.53137771 4578.45982301 -1212.51889454 4580.45793745 -1214.5 4582.5 C-1217.80986698 4585.84933729 -1221.20746949 4588.99925956 -1224.78125 4592.0625 C-1226.98399955 4593.98602777 -1229.133137 4595.96105114 -1231.27661133 4597.95019531 C-1236.48367175 4602.78065226 -1241.81654839 4607.36375386 -1247.3515625 4611.8203125 C-1249.97275119 4613.97757399 -1252.49154281 4616.21311 -1255 4618.5 C-1260.17514816 4623.20468015 -1265.5620284 4627.60436343 -1271 4632 C-1272.23120087 4633.01082767 -1273.46162618 4634.02260049 -1274.69140625 4635.03515625 C-1282.54413443 4641.48578541 -1290.51743438 4647.72011071 -1298.6796875 4653.7734375 C-1301.8137286 4656.10170744 -1304.91677074 4658.46650668 -1308.0078125 4660.8515625 C-1318.01828581 4668.56944041 -1328.14804641 4675.97886324 -1338.6328125 4683.0390625 C-1342.58286844 4685.70056989 -1346.45593749 4688.45545279 -1350.3125 4691.25 C-1354.97342811 4694.60630289 -1359.69141325 4697.85839848 -1364.5 4701 C-1365.6034375 4701.721875 -1366.706875 4702.44375 -1367.84375 4703.1875 C-1375.68801266 4707.69212608 -1383.9836108 4708.3332251 -1392.78515625 4706.3828125 C-1400.7296389 4703.6077691 -1406.52391579 4698.2328801 -1410.4375 4690.8125 C-1414.96643371 4680.53760634 -1412.84660878 4671.4826949 -1409.00927734 4661.39575195 C-1407.87688055 4658.59013146 -1406.72106282 4655.79491198 -1405.5625 4653 C-1372.51689579 4571.42288275 -1354.80210469 4484.05319319 -1343 4355 C-1342.93329102 4354.00323242 -1342.86658203 4353.00646484 -1342.79785156 4351.97949219 C-1342.43166298 4346.32198689 -1342.18631093 4340.66609932 -1342 4335 C-1341.95633301 4333.70513672 -1341.91266602 4332.41027344 -1341.86767578 4331.07617188 C-1341.17287062 4310.0512968 -1340.73035464 4289.03757418 -1341 4268 C-1341.00860046 4267.32138916 -1341.01720093 4266.64277832 -1341.02606201 4265.94360352 C-1342.44501464 4159.55601391 -1356.91001191 4053.69546409 -1417 3811 C-1417.24302856 3810.20621948 -1417.48605713 3809.41243896 -1417.7364502 3808.59460449 C-1421.38481414 3796.69529667 -1425.15647897 3784.83761001 -1429 3773 C-1429.30294983 3772.06581238 -1429.60589966 3771.13162476 -1429.91802979 3770.16912842 C-1445.87106439 3721.03215136 -1463.7213631 3672.71652097 -1482.74609375 3624.69238281 C-1493.60317885 3597.28399352 -1504.03540055 3569.74611602 -1514 3542 C-1514.28641357 3541.20370178 -1514.57282715 3540.40740356 -1514.86791992 3539.5869751 C-1552.32730692 3435.36164446 -1582.04028428 3328.66473711 -1639 2750 C-1638.94908203 2748.99648499 -1638.89816406 2747.99296997 -1638.84570312 2746.95904541 C-1633.50976757 2643.22702291 -1619.10751328 2539.8835086 -1446.91619873 2003.98345947 C-1446.04076456 2002.08825035 -1445.1683626 2000.19168436 -1444.29736328 1998.29443359 C-1423.49175626 1953.00361174 -1401.6025519 1907.94678182 -1377.33007812 1864.40283203 C-1375.90521362 1861.82876513 -1374.50497811 1859.24238614 -1373.109375 1856.65234375 C-1365.70516326 1842.92235716 -1357.95358914 1829.41864494 -1350 1816 C-1349.37657715 1814.948125 -1348.7531543 1813.89625 -1348.11083984 1812.8125 C-1340.46338661 1799.93586865 -1332.69080455 1787.15134568 -1324.61914062 1774.53613281 C-1322.83727433 1771.74511546 -1321.06693878 1768.94695373 -1319.296875 1766.1484375 C-1310.42402394 1752.15680323 -1301.2630342 1738.38743126 -1291.87890625 1724.73388672 C-1290.2173153 1722.31620279 -1288.56051065 1719.89535827 -1286.90625 1717.47265625 C-1268.59654399 1690.69105538 -1249.54024016 1664.40573683 -1229.82983398 1638.63891602 C-1225.76695762 1633.32721482 -1221.74298703 1627.98935602 -1217.75 1622.625 C-1212.94610067 1616.18559315 -1207.97319668 1609.89729805 -1202.9296875 1603.64453125 C-1200.10675051 1600.14330782 -1197.33097881 1596.60683584 -1194.5625 1593.0625 C-1190.05932899 1587.30568402 -1185.46321117 1581.62892008 -1180.84057617 1575.96777344 C-1177.29899403 1571.62264788 -1173.81862467 1567.23550984 -1170.375 1562.8125 C-1165.92964235 1557.11119589 -1161.31079415 1551.5797052 -1156.6171875 1546.08203125 C-1154.20503476 1543.25316987 -1151.84580002 1540.38424878 -1149.5 1537.5 C-1144.87447007 1531.82096859 -1140.14532956 1526.23407178 -1135.40283203 1520.65283203 C-1134.02522412 1519.02971933 -1132.65068243 1517.4040696 -1131.27734375 1515.77734375 C-1125.56335612 1509.00966922 -1119.81770439 1502.2700485 -1114.046875 1495.55078125 C-1111.9903355 1493.15611701 -1109.93862686 1490.75743831 -1107.890625 1488.35546875 C-1103.42228669 1483.11935532 -1098.94582096 1477.90432668 -1094.3125 1472.8125 C-1091.33975977 1469.54195395 -1088.51514086 1466.19764386 -1085.75 1462.75 C-1081.0910841 1456.98765665 -1076.06672284 1451.61507994 -1071 1446.21484375 C-1068.19482746 1443.22225667 -1065.48385954 1440.1603944 -1062.8046875 1437.0546875 C-1060.41218226 1434.33075297 -1057.95594058 1431.66656731 -1055.5 1429 C-1052.46107665 1425.6997517 -1049.43843844 1422.3905059 -1046.5 1419 C-1043.13542128 1415.12027047 -1039.66411092 1411.34142491 -1036.1875 1407.5625 C-1033.27210044 1404.39220211 -1030.37616922 1401.20605243 -1027.5 1398 C-1019.42884113 1389.01133816 -1011.22209533 1380.14566928 -1003.0234375 1371.2734375 C-1001.04728318 1369.13482476 -999.07333632 1366.99421448 -997.1015625 1364.8515625 C-990.40237396 1357.57512984 -983.6546696 1350.3455536 -976.8828125 1343.13671875 C-974.24763883 1340.33142627 -971.61788679 1337.52119314 -968.9921875 1334.70703125 C-963.30201829 1328.61297572 -957.61506155 1322.5448686 -951.66796875 1316.69921875 C-949.96494971 1314.96429303 -948.38845569 1313.16319857 -946.8125 1311.3125 C-943.0671398 1306.94721812 -938.99338615 1302.93619667 -934.88208008 1298.91918945 C-932.00116483 1296.08396815 -929.26182454 1293.18974349 -926.625 1290.125 C-922.13082919 1284.92410466 -917.21733286 1280.16872225 -912.31640625 1275.35546875 C-908.99340352 1272.0685203 -905.75348693 1268.77519715 -902.71875 1265.21875 C-897.31633844 1258.93960422 -891.28831843 1253.2334405 -885.39746094 1247.41796875 C-883.82531785 1245.86414002 -882.25636916 1244.30713323 -880.6875 1242.75 C-879.76324219 1241.83734375 -878.83898438 1240.9246875 -877.88671875 1239.984375 C-875.71889509 1237.79291668 -873.68945034 1235.51303614 -871.67773438 1233.17773438 C-867.80744799 1228.7130336 -863.6683411 1224.55945171 -859.46875 1220.40625 C-858.67400269 1219.61528931 -857.87925537 1218.82432861 -857.0604248 1218.00939941 C-853.69464452 1214.65981427 -850.32288952 1211.3162673 -846.95166016 1207.97216797 C-844.47609773 1205.51479061 -842.00361917 1203.05433942 -839.53125 1200.59375 C-838.78000854 1199.85080688 -838.02876709 1199.10786377 -837.25476074 1198.34240723 C-836.53711548 1197.62806519 -835.81947021 1196.91372314 -835.08007812 1196.17773438 C-834.45943481 1195.56232788 -833.8387915 1194.94692139 -833.19934082 1194.31286621 C-831.31873826 1192.33519086 -829.53421342 1190.3180741 -827.75244141 1188.25244141 C-823.97307209 1183.90913983 -819.96522989 1179.83831707 -815.88085938 1175.78320312 C-814.71113335 1174.6156675 -814.71113335 1174.6156675 -813.51777649 1173.42454529 C-811.83729463 1171.74784614 -810.15565932 1170.07230239 -808.47297668 1168.39781189 C-805.80489707 1165.74258422 -803.14003111 1163.08416803 -800.47595215 1160.42492676 C-794.34051295 1154.30183898 -788.20041635 1148.18343124 -782.06006622 1142.06526947 C-775.97700545 1136.00407664 -769.89596652 1129.94086886 -763.8183136 1123.87425232 C-761.20201349 1121.26440069 -758.58270301 1118.65759673 -755.96325684 1116.05090332 C-754.3484024 1114.43968386 -752.73368957 1112.82832246 -751.11914062 1111.21679688 C-750.39789505 1110.50071762 -749.67664948 1109.78463837 -748.93354797 1109.04685974 C-745.725902 1105.83954579 -742.61484413 1102.6037391 -739.66064453 1099.16064453 C-735.13877521 1093.92249513 -730.21399597 1089.09015771 -725.31054688 1084.21289062 C-724.24677013 1083.15103703 -723.18322377 1082.08895259 -722.11988831 1081.0266571 C-719.84385819 1078.75376899 -717.56628874 1076.48243915 -715.28749084 1074.21232605 C-711.67809476 1070.61654377 -708.07259769 1067.01686858 -704.46765137 1063.41662598 C-696.16504052 1055.12601685 -687.85740748 1046.84044624 -679.54972076 1038.55492401 C-671.93057861 1030.95600516 -664.3125224 1023.35600586 -656.69851923 1015.75193739 C-653.12088915 1012.17926448 -649.54084134 1008.60903812 -645.95886993 1005.04071808 C-643.72480908 1002.81415987 -641.49286091 1000.58549282 -639.26145744 998.35627174 C-638.23324665 997.3299198 -637.2041785 996.30442587 -636.17415047 995.27989769 C-631.09883928 990.23081646 -626.14805356 985.14755014 -621.48674774 979.71259308 C-619.45421362 977.37130561 -617.29294534 975.18053396 -615.09375 972.99609375 C-614.19591797 972.10156494 -613.29808594 971.20703613 -612.37304688 970.28540039 C-611.90503662 969.82150909 -611.43702637 969.3576178 -610.95483398 968.87966919 C-609.46285757 967.40068091 -607.97422447 965.91839498 -606.48632812 964.43530273 C-602.79331846 960.75552613 -599.09482888 957.08127373 -595.39648438 953.40686035 C-592.25929696 950.28954371 -589.12426398 947.17008912 -585.99194336 944.04788208 C-584.53902092 942.60134931 -583.08307719 941.15790833 -581.62695312 939.71459961 C-577.10489144 935.20917509 -572.73820596 930.65287881 -568.58276367 925.80761719 C-566.07013275 922.93803222 -563.37319208 920.26835226 -560.65625 917.59375 C-560.08346313 917.02474976 -559.51067627 916.45574951 -558.92053223 915.86950684 C-556.51060718 913.47567314 -554.09465522 911.08795757 -551.67919922 908.69970703 C-542.90475808 900.02765502 -542.90475808 900.02765502 -534.64648438 890.86914062 C-530.57603115 886.24823465 -526.0606546 882.02607986 -521.671875 877.7109375 C-517.49299119 873.57469536 -513.51151504 869.36103708 -509.6796875 864.90234375 C-506.93080562 861.7890752 -503.96646441 858.90402118 -501 856 C-496.74424556 851.79323266 -492.63598044 847.55950092 -488.76953125 842.98828125 C-486.00275611 839.87947651 -483.01404421 836.99361177 -480.05273438 834.07226562 C-476.75908448 830.80587352 -473.68495522 827.42079478 -470.67578125 823.89453125 C-468.23467461 821.134772 -465.597094 818.58789024 -462.97265625 816.00390625 C-460.42662171 813.41753849 -458.07978443 810.6846472 -455.71484375 807.93359375 C-453.52904196 805.4689653 -451.19495385 803.18183571 -448.84448242 800.87573242 C-447.06099668 799.06203011 -445.39294978 797.193583 -443.734375 795.265625 C-440.16948708 791.16562705 -436.48203739 787.19759218 -432.75 783.25 C-424.15989318 774.12420723 -415.6895891 764.89950613 -407.3203125 755.5703125 C-404.68920168 752.655715 -402.03343641 749.76464406 -399.375 746.875 C-395.79349463 742.97987555 -392.26412027 739.04748618 -388.80078125 735.046875 C-386.61224335 732.55925274 -384.36760809 730.12646548 -382.125 727.6875 C-378.85470527 724.10738788 -375.71973383 720.47083763 -372.6875 716.6875 C-368.61380742 711.63323717 -364.25029826 706.9213505 -359.80419922 702.19873047 C-355.71933635 697.83636008 -351.91242981 693.31021857 -348.17578125 688.64453125 C-345.869683 685.84160752 -343.45848469 683.16996725 -341 680.5 C-336.98394153 676.13230508 -333.20614546 671.63150764 -329.48046875 667.015625 C-326.55030993 663.45329019 -323.53219049 659.97545747 -320.5 656.5 C-316.05968017 651.40336249 -311.69796686 646.25992227 -307.44140625 641.0078125 C-304.31432876 637.15525303 -301.15690149 633.32812941 -298 629.5 C-292.65332072 623.01083764 -287.31513723 616.51504279 -282 610 C-281.51176758 609.40364746 -281.02353516 608.80729492 -280.52050781 608.19287109 C-274.10981001 600.36168736 -267.77559672 592.49208652 -261.63671875 584.4453125 C-259.15720195 581.19576534 -256.64551563 577.97196071 -254.13061523 574.74975586 C-240.82283515 557.69632887 -227.74417195 540.47899877 -215 523 C-214.45778809 522.25685547 -213.91557617 521.51371094 -213.35693359 520.74804688 C-182.16310251 477.93261736 -152.60521746 433.82149774 -126 388 C-125.49903809 387.13842285 -124.99807617 386.2768457 -124.48193359 385.38916016 C-116.37358308 371.41115492 -108.59426072 357.26330985 -101 343 C-100.16879639 341.44249023 -100.16879639 341.44249023 -99.32080078 339.85351562 C-76.57926972 297.08762345 -57.61286128 252.84339855 -42 207 C-41.77826111 206.35023193 -41.55652222 205.70046387 -41.32806396 205.03100586 C-22.58154209 149.88074311 -10.69343386 90.61940283 -9.80078125 32.3046875 C-9.78495499 31.37351105 -9.76912872 30.44233459 -9.75282288 29.48294067 C-9.67524764 24.8113557 -9.62043169 20.141449 -9.60473633 15.46923828 C-9.58349849 13.75031732 -9.56163615 12.03140393 -9.5390625 10.3125 C-9.54420364 9.51689667 -9.54934479 8.72129333 -9.55464172 7.90158081 C-9.49429954 4.58378407 -9.43396447 2.52494312 -7.27880859 -0.08203125 C-4.32986178 -1.26995069 -2.96078329 -1.13167981 0 0 Z M23.42626953 196.97583008 C21.21865339 200.1088916 21.07754288 203.56935434 20.640625 207.28515625 C20.41372801 209.01328517 20.18667024 210.74139299 19.95947266 212.46948242 C19.8443634 213.38087982 19.72925415 214.29227722 19.61065674 215.23129272 C8.49182988 302.51568299 -22.51804081 386.284222 -72.44335938 480.19873047 C-74.05999086 483.1079572 -75.6630895 486.02439431 -77.265625 488.94140625 C-86.07331326 504.90113545 -95.40175696 520.50740024 -105 536 C-105.85682373 537.38372803 -105.85682373 537.38372803 -106.73095703 538.79541016 C-122.63888015 564.37012316 -139.46072342 589.51612548 -157 614 C-157.53061035 614.74233887 -158.0612207 615.48467773 -158.60791016 616.24951172 C-162.37933498 621.51866321 -166.18075824 626.76542555 -170 632 C-170.55123535 632.75603516 -171.1024707 633.51207031 -171.67041016 634.29101562 C-180.94391647 646.9909314 -190.43339816 659.51987307 -200 672 C-200.94925474 673.24085789 -201.89847758 674.48174017 -202.84765625 675.72265625 C-212.47830454 688.29626101 -222.32029799 700.68458811 -232.33398438 712.95458984 C-234.00317637 715.00389971 -235.6665511 717.05779133 -237.328125 719.11328125 C-242.85333926 725.94435144 -248.42161846 732.72924007 -254.11767578 739.41870117 C-256.95078036 742.74850544 -259.74033676 746.10913719 -262.5 749.5 C-270.48046243 759.2948482 -278.72478864 768.86987534 -286.95703125 778.453125 C-289.00167679 780.83383161 -291.04026526 783.21952809 -293.07421875 785.609375 C-298.53755892 792.02161109 -304.07236887 798.34078054 -309.765625 804.55078125 C-312.29402372 807.32229524 -314.76184 810.14127003 -317.22265625 812.97265625 C-320.05432947 816.20263076 -322.94202507 819.38190656 -325.8203125 822.5703125 C-327.69145094 824.6560618 -329.53924831 826.75817628 -331.375 828.875 C-334.78614726 832.7915024 -338.29592653 836.6150761 -341.81201172 840.43701172 C-344.7276106 843.60743932 -347.62367705 846.79377621 -350.5 850 C-355.16411039 855.19525463 -359.88234031 860.33992716 -364.60595703 865.48095703 C-365.95677503 866.95289916 -367.30460973 868.42757736 -368.65234375 869.90234375 C-375.45476658 877.34405448 -382.32328993 884.72215902 -389.21044922 892.08544922 C-390.95570615 893.95261222 -392.69895935 895.82162095 -394.44140625 897.69140625 C-397.95739216 901.46425641 -401.47802735 905.23273884 -405 909 C-405.65822754 909.70479492 -406.31645508 910.40958984 -406.99462891 911.13574219 C-414.36478512 919.02221188 -421.73927842 926.87731982 -429.47265625 934.41015625 C-431.47728993 936.46436356 -433.34746611 938.54029249 -435.21484375 940.71484375 C-440.16235908 946.4219722 -445.59286632 951.6387926 -450.97265625 956.93359375 C-451.77574219 957.72894531 -452.57882812 958.52429687 -453.40625 959.34375 C-454.12103516 960.04693359 -454.83582031 960.75011719 -455.57226562 961.47460938 C-457.54174891 963.52331564 -459.40079445 965.60250736 -461.25390625 967.75390625 C-465.15007959 972.23864435 -469.30880835 976.41795015 -473.53125 980.59375 C-474.72337097 981.78019104 -474.72337097 981.78019104 -475.9395752 982.99060059 C-479.30535548 986.34018573 -482.67711048 989.6837327 -486.04833984 993.02783203 C-488.52390227 995.48520939 -490.99638083 997.94566058 -493.46875 1000.40625 C-494.21999146 1001.14919312 -494.97123291 1001.89213623 -495.74523926 1002.65759277 C-496.46288452 1003.37193481 -497.18052979 1004.08627686 -497.91992188 1004.82226562 C-498.54056519 1005.43767212 -499.1612085 1006.05307861 -499.80065918 1006.68713379 C-501.63451276 1008.61564707 -503.36711763 1010.57926512 -505.09938049 1012.59739685 C-509.66027384 1017.83758737 -514.57461275 1022.71483532 -519.48999023 1027.61938477 C-520.5324226 1028.66317504 -521.57464275 1029.70717729 -522.6166687 1030.75137329 C-525.42636093 1033.56559359 -528.23917001 1036.37667853 -531.05271792 1039.18704343 C-534.0093117 1042.14108957 -536.9634468 1045.0975929 -539.91798401 1048.05369568 C-544.87817835 1053.01570473 -549.84046679 1057.97561221 -554.80395508 1062.93432617 C-560.52653692 1068.65146675 -566.24550765 1074.37220063 -571.96261638 1080.09481388 C-576.88838244 1085.02513101 -581.81611093 1089.95348037 -586.74545819 1094.88021702 C-589.68205648 1097.81526349 -592.61799214 1100.75096423 -595.55215263 1103.68844795 C-598.31191562 1106.45111871 -601.07414995 1109.21129533 -603.83823776 1111.96963882 C-604.84682311 1112.97691207 -605.85457739 1113.98501831 -606.86139488 1114.99405861 C-611.81718117 1119.95976877 -616.81328177 1124.79008941 -622.13591099 1129.36064053 C-625.36068925 1132.19664822 -628.36752827 1135.24515651 -631.390625 1138.29296875 C-632.08119995 1138.98500397 -632.7717749 1139.67703918 -633.48327637 1140.39004517 C-634.96844978 1141.87899654 -636.45246792 1143.36910102 -637.9354248 1144.86026001 C-640.28819735 1147.22590636 -642.64417588 1149.58831828 -645.00097656 1151.94995117 C-650.00347404 1156.96382394 -655.00202863 1161.981616 -660 1167 C-665.79594837 1172.81962008 -671.59354008 1178.63758312 -677.39538574 1184.45132446 C-679.70609471 1186.76847237 -682.01374891 1189.08863259 -684.32128906 1191.40893555 C-685.75050135 1192.84178344 -687.17985596 1194.2744894 -688.609375 1195.70703125 C-689.24129761 1196.34412018 -689.87322021 1196.98120911 -690.52429199 1197.63760376 C-693.51122894 1200.6248886 -696.542108 1203.50207032 -699.75044155 1206.25128269 C-703.87782372 1209.84723354 -707.77141396 1213.63138568 -711.63453674 1217.5075531 C-712.35922195 1218.23067832 -713.08390715 1218.95380353 -713.83055252 1219.69884163 C-716.23779593 1222.10212329 -718.64148115 1224.5089311 -721.04516602 1226.91577148 C-722.77860177 1228.64785106 -724.51224993 1230.37971807 -726.24609375 1232.11138916 C-730.45371074 1236.31492925 -734.65899343 1240.52079544 -738.86311883 1244.72782689 C-742.28208106 1248.1490539 -745.70202588 1251.56929583 -749.1226635 1254.98884773 C-749.61079746 1255.47682846 -750.09893142 1255.96480919 -750.60185732 1256.46757721 C-751.5937117 1257.45911184 -752.58556832 1258.45064425 -753.57742714 1259.44217444 C-762.862788 1268.72468851 -772.14508976 1278.01025672 -781.42633646 1287.29688413 C-789.37811155 1295.25312653 -797.33250472 1303.20674354 -805.28881836 1311.15844727 C-814.54379823 1320.40806723 -823.79714292 1329.65931805 -833.04791015 1338.91315132 C-834.03565544 1339.90121513 -835.0234028 1340.88927687 -836.01115227 1341.8773365 C-836.4970549 1342.36339341 -836.98295753 1342.84945031 -837.48358448 1343.35023622 C-840.89637968 1346.76389232 -844.31032865 1350.17639187 -847.72473335 1353.58843803 C-852.32604021 1358.18663612 -856.92466976 1362.78750101 -861.52153778 1367.39013672 C-863.20608174 1369.07599964 -864.89147114 1370.76101827 -866.57777977 1372.44511604 C-868.88499598 1374.74958674 -871.18908933 1377.05713667 -873.4924469 1379.36546326 C-874.1552979 1380.02608354 -874.8181489 1380.68670381 -875.50108629 1381.36734289 C-879.30505045 1385.18716436 -882.92263858 1389.11712256 -886.43285221 1393.20902973 C-888.87163547 1395.99612379 -891.48610233 1398.59148754 -894.125 1401.1875 C-894.67559082 1401.7343042 -895.22618164 1402.2811084 -895.79345703 1402.84448242 C-898.1077946 1405.14274364 -900.4281665 1407.43487516 -902.74804688 1409.72753906 C-908.48125835 1415.3994845 -914.16739741 1421.02995337 -919.3984375 1427.17578125 C-923.04836941 1431.33314272 -927.09174503 1435.12830164 -931.0390625 1439 C-934.99038866 1442.90555791 -938.72223899 1446.91589878 -942.34765625 1451.125 C-944.77495909 1453.8793862 -947.37238486 1456.4385541 -950 1459 C-953.96663765 1462.91253596 -957.74585151 1466.89561196 -961.359375 1471.140625 C-963.78602447 1473.89082773 -966.41486231 1476.42388177 -969.02734375 1478.99609375 C-971.57337829 1481.58246151 -973.92021557 1484.3153528 -976.28515625 1487.06640625 C-978.47111059 1489.53120671 -980.80537685 1491.81848488 -983.15600586 1494.12475586 C-984.9368116 1495.93574075 -986.60200864 1497.80126636 -988.2578125 1499.7265625 C-991.86365173 1503.87394501 -995.59857052 1507.88324993 -999.375 1511.875 C-1004.23114096 1517.03060199 -1009.0388534 1522.21841222 -1013.75390625 1527.50390625 C-1016.51472246 1530.5720133 -1019.31906041 1533.59820859 -1022.125 1536.625 C-1025.88979185 1540.68943019 -1029.60186071 1544.7860536 -1033.2265625 1548.9765625 C-1035.45138092 1551.51501171 -1037.72503319 1554.00641776 -1040 1556.5 C-1045.00801551 1561.9967858 -1049.92210989 1567.56000294 -1054.74609375 1573.21875 C-1055.7680638 1574.41680775 -1056.79020431 1575.6147201 -1057.8125 1576.8125 C-1058.58823364 1577.72153076 -1058.58823364 1577.72153076 -1059.37963867 1578.64892578 C-1062.5847653 1582.39032262 -1065.85193729 1586.06098478 -1069.1875 1589.6875 C-1073.21393836 1594.07355646 -1076.98109722 1598.61741628 -1080.71875 1603.25 C-1083.06718968 1606.08099578 -1085.50909902 1608.79383598 -1088 1611.5 C-1092.03633055 1615.89028569 -1095.84030529 1620.4117562 -1099.5859375 1625.05078125 C-1102.33862193 1628.4136886 -1105.16192121 1631.70920237 -1108 1635 C-1113.09995254 1640.92092052 -1118.07749252 1646.9304128 -1123 1653 C-1124.4159632 1654.72974276 -1125.8326473 1656.45889561 -1127.25 1658.1875 C-1128.83386697 1660.12456379 -1130.41714358 1662.06211036 -1132 1664 C-1132.49016602 1664.59973633 -1132.98033203 1665.19947266 -1133.48535156 1665.81738281 C-1139.6959174 1673.42082972 -1145.86512017 1681.05121537 -1151.91015625 1688.78710938 C-1154.70597503 1692.36268686 -1157.52964099 1695.9137795 -1160.37573242 1699.44946289 C-1166.78947034 1707.41937562 -1173.02931064 1715.51133156 -1179.21679688 1723.65771484 C-1181.11238804 1726.14762471 -1183.0164353 1728.63090123 -1184.921875 1731.11328125 C-1192.92657135 1741.55473392 -1200.76737693 1752.09128425 -1208.41894531 1762.79394531 C-1210.57455446 1765.80167914 -1212.74695923 1768.79711779 -1214.91870117 1771.79321289 C-1234.38500024 1798.66670908 -1253.09319351 1826.06292046 -1271 1854 C-1271.46631836 1854.72638672 -1271.93263672 1855.45277344 -1272.41308594 1856.20117188 C-1297.36871847 1895.15045697 -1320.18439734 1935.48240602 -1341.25463867 1976.65455627 C-1343.37070806 1980.7857335 -1345.51132599 1984.90344955 -1347.6640625 1989.015625 C-1355.09018336 2003.20629245 -1362.22413082 2017.48814299 -1369 2032 C-1369.63974953 2033.36322383 -1370.27973676 2034.72633613 -1370.91992188 2036.08935547 C-1388.80832956 2074.20975067 -1405.54416184 2112.82901936 -1421 2152 C-1421.30510498 2152.77307495 -1421.61020996 2153.5461499 -1421.92456055 2154.34265137 C-1432.17782707 2180.36222708 -1441.78098849 2206.59748256 -1451 2233 C-1451.48596649 2234.38895477 -1451.48596649 2234.38895477 -1451.98175049 2235.80596924 C-1490.21995133 2345.15785418 -1519.19721302 2457.96901354 -1563.1875 2794 C-1563.22452026 2794.67831879 -1563.26154053 2795.35663757 -1563.29968262 2796.05551147 C-1563.52183837 2800.21386918 -1563.71552365 2804.37290731 -1563.89285278 2808.53335571 C-1563.96782965 2810.25940399 -1564.0466607 2811.9852872 -1564.12838745 2813.71102905 C-1565.154774 2835.65109896 -1565.18755463 2857.58647031 -1565.18530273 2879.54614258 C-1565.18522216 2883.68974233 -1565.19207075 2887.83322989 -1565.20581055 2891.97680664 C-1565.33260074 2930.8977793 -1564.24527926 2969.74784184 -1561.25 3008.5625 C-1561.16763092 3009.65258362 -1561.08526184 3010.74266724 -1561.00039673 3011.86578369 C-1553.30798736 3112.81459719 -1535.9570596 3213.49890618 -1428 3503 C-1426.87401202 3499.62203607 -1427.1003376 3498.96870877 -1428.20898438 3495.72705078 C-1428.50158142 3494.85513092 -1428.79417847 3493.98321106 -1429.09564209 3493.08486938 C-1429.4250177 3492.13131561 -1429.75439331 3491.17776184 -1430.09375 3490.1953125 C-1430.79438304 3488.11147525 -1431.49455648 3486.02748343 -1432.19433594 3483.94335938 C-1432.56973511 3482.83500732 -1432.94513428 3481.72665527 -1433.33190918 3480.5847168 C-1466.66184248 3381.86625409 -1488.43736349 3279.36191105 -1501 3176 C-1501.11903687 3175.02387756 -1501.23807373 3174.04775513 -1501.36071777 3173.04205322 C-1512.29155557 3082.94859946 -1514.95774272 2992.21097226 -1508 2836 C-1507.91963501 2834.96256653 -1507.83927002 2833.92513306 -1507.75646973 2832.85626221 C-1499.83092624 2731.57196962 -1483.66675775 2630.80867779 -1407 2352 C-1406.68202454 2351.05574158 -1406.36404907 2350.11148315 -1406.03643799 2349.13861084 C-1391.74355182 2306.79467002 -1375.49757754 2265.11544512 -1358 2224 C-1357.70520752 2223.30575928 -1357.41041504 2222.61151855 -1357.10668945 2221.89624023 C-1348.41931452 2201.44045986 -1339.30604119 2181.18068288 -1330 2161 C-1329.6903833 2160.32749207 -1329.3807666 2159.65498413 -1329.06176758 2158.96209717 C-1314.21789553 2126.73322076 -1298.79192159 2094.64982226 -1281.47216797 2063.67089844 C-1279.44051408 2059.98494594 -1277.4726478 2056.26601398 -1275.50170898 2052.54733276 C-1267.69140585 2037.81373659 -1259.53273393 2023.33003135 -1251 2009 C-1250.29773291 2007.81510815 -1249.59575712 2006.63004361 -1248.89404297 2005.44482422 C-1227.47451973 1969.28423975 -1204.37680775 1934.2366578 -1180 1900 C-1179.47857422 1899.26539551 -1178.95714844 1898.53079102 -1178.41992188 1897.77392578 C-1171.47275699 1888.00314327 -1164.31500067 1878.41064147 -1157.01879883 1868.89794922 C-1152.53853566 1863.04935894 -1148.15236918 1857.1407622 -1143.8125 1851.1875 C-1138.43656016 1843.82914906 -1132.80583148 1836.73013453 -1127.015625 1829.6953125 C-1124.26833197 1826.35040528 -1121.6227921 1822.9434722 -1119 1819.5 C-1113.64748255 1812.48515599 -1108.08181224 1805.65171734 -1102.49267578 1798.82470703 C-1101.17813798 1797.21776304 -1099.86801698 1795.60720809 -1098.55859375 1793.99609375 C-1094.1299314 1788.55335486 -1089.62709366 1783.1794409 -1085.08325195 1777.83300781 C-1082.20408664 1774.44008249 -1079.36777419 1771.01709624 -1076.5625 1767.5625 C-1071.66883642 1761.55426535 -1066.61973208 1755.68540867 -1061.56152344 1749.81591797 C-1059.9974147 1747.99699352 -1058.43918924 1746.17319921 -1056.8828125 1744.34765625 C-1052.41768077 1739.11360028 -1047.94336671 1733.90162956 -1043.3125 1728.8125 C-1040.35867819 1725.56329601 -1037.55550252 1722.24125315 -1034.8125 1718.8125 C-1029.90764404 1712.74392602 -1024.57244999 1707.11293336 -1019.22265625 1701.4375 C-1016.32430929 1698.35960942 -1013.52046357 1695.21519825 -1010.76171875 1692.01171875 C-1007.95825988 1688.81042979 -1005.06571741 1685.69074238 -1002.18457031 1682.55957031 C-999.28988969 1679.41197562 -996.41608263 1676.24753325 -993.5625 1673.0625 C-988.60825056 1667.54406556 -983.57304147 1662.10208239 -978.53515625 1656.66015625 C-977.052456 1655.05672722 -975.57254164 1653.45078374 -974.09375 1651.84375 C-968.48283262 1645.74792685 -962.84643525 1639.67628436 -957.1875 1633.625 C-956.57737061 1632.97104248 -955.96724121 1632.31708496 -955.33862305 1631.64331055 C-951.82064721 1627.88809257 -948.24257847 1624.21096107 -944.5715332 1620.60498047 C-942.96452337 1618.96376831 -941.47720978 1617.2582775 -940 1615.5 C-935.80082124 1610.6136829 -931.19093501 1606.13855 -926.59375 1601.63085938 C-923.57039236 1598.64844303 -920.65522144 1595.64438678 -917.90625 1592.40625 C-911.73800073 1585.25274607 -904.81706858 1578.76489816 -898.10644531 1572.12695312 C-896.25633381 1570.29510246 -894.40937088 1568.46011693 -892.5625 1566.625 C-892.00812256 1566.0789209 -891.45374512 1565.5328418 -890.88256836 1564.97021484 C-888.06100691 1562.16599473 -885.36904963 1559.30326755 -882.78013611 1556.28211975 C-879.10276093 1552.06247904 -875.22641478 1548.08526391 -871.26391602 1544.13452148 C-870.52471924 1543.39357239 -869.78552246 1542.65262329 -869.02392578 1541.88922119 C-866.60307852 1539.4640072 -864.17863251 1537.04242906 -861.75390625 1534.62109375 C-860.05657095 1532.92308393 -858.35938405 1531.22492575 -856.66233826 1529.52662659 C-853.11432414 1525.97714251 -849.56451888 1522.42946221 -846.01342773 1518.88305664 C-841.4765115 1514.35183724 -836.94409986 1509.81614284 -832.41302586 1505.2790823 C-828.91200397 1501.77443585 -825.40859015 1498.27218827 -821.90446281 1494.77064705 C-820.23288648 1493.09973474 -818.5620442 1491.42808773 -816.89196968 1489.75567436 C-814.55222653 1487.4133735 -812.20927028 1485.07433276 -809.86547852 1482.73608398 C-809.18523117 1482.05381241 -808.50498383 1481.37154083 -807.80412292 1480.66859436 C-803.91536202 1476.7967356 -799.9122224 1473.12129029 -795.75930691 1469.53457737 C-793.73221808 1467.76642389 -791.80760968 1465.92185808 -789.9140625 1464.01171875 C-789.21974121 1463.31409424 -788.52541992 1462.61646973 -787.81005859 1461.89770508 C-787.08898926 1461.1683374 -786.36791992 1460.43896973 -785.625 1459.6875 C-784.85623535 1458.91494873 -784.0874707 1458.14239746 -783.29541016 1457.34643555 C-780.86114235 1454.90005818 -778.43015894 1452.4504586 -776 1450 C-772.79463822 1446.76786312 -769.58585927 1443.53917465 -766.375 1440.3125 C-765.65393066 1439.58313232 -764.93286133 1438.85376465 -764.18994141 1438.10229492 C-760.20727601 1434.10068205 -756.12041342 1430.30482082 -751.84423828 1426.61938477 C-749.19228924 1424.29076708 -746.73021359 1421.82424173 -744.25 1419.3125 C-743.74758789 1418.80630127 -743.24517578 1418.30010254 -742.72753906 1417.77856445 C-741.14917288 1416.1881815 -739.57414991 1414.59455555 -738 1413 C-726.2872262 1401.13539395 -726.2872262 1401.13539395 -719.953125 1395.73046875 C-715.94898956 1392.18280475 -712.25095473 1388.31116267 -708.5 1384.5 C-703.48072491 1379.40015869 -698.43954375 1374.44816517 -693.00976562 1369.78710938 C-689.1669081 1366.36999116 -685.60391313 1362.66541335 -682 1359 C-677.13347611 1354.05042963 -672.22953931 1349.26669814 -666.96484375 1344.7421875 C-663.48425517 1341.65601949 -660.25601331 1338.31960733 -657 1335 C-652.47021287 1330.38174047 -647.87040516 1325.9680272 -642.96875 1321.74609375 C-639.66261899 1318.81387042 -636.59082335 1315.65589331 -633.5 1312.5 C-629.78409976 1308.70587028 -626.05687536 1304.99863434 -622.03125 1301.53125 C-617.8076119 1297.88933509 -613.90341837 1293.97965701 -610 1290 C-605.48024688 1285.39197045 -600.89067773 1280.98982203 -596 1276.77734375 C-592.51028722 1273.67613415 -589.2678338 1270.33165868 -586 1267 C-582.11716293 1263.04132627 -578.23659338 1259.14941662 -574.03125 1255.53125 C-569.62796818 1251.73857952 -565.57013076 1247.64426794 -561.5 1243.5 C-557.47117139 1239.39778653 -553.4608587 1235.33823878 -549.09375 1231.59375 C-544.13316945 1227.32579721 -539.58975864 1222.65930044 -535 1218 C-525.51285929 1208.36911473 -525.51285929 1208.36911473 -521.15625 1204.65625 C-515.27989276 1199.61768666 -509.93592223 1194.00328981 -504.5 1188.5 C-502.32597227 1186.29902946 -500.14840934 1184.10164212 -497.96875 1181.90625 C-497.48829224 1181.4174939 -497.00783447 1180.92873779 -496.51281738 1180.4251709 C-493.87198702 1177.76594067 -491.16089175 1175.25301682 -488.31445312 1172.81445312 C-483.48786285 1168.63148436 -479.00367562 1164.1169712 -474.50927734 1159.58444214 C-472.9630726 1158.02526273 -471.41358104 1156.46941379 -469.86328125 1154.91430664 C-466.57267017 1151.61236864 -463.28603038 1148.30649584 -460 1145 C-456.18663495 1141.16288524 -452.37157851 1137.32748325 -448.55224609 1133.49630737 C-447.03923948 1131.97690534 -445.5293203 1130.45448297 -444.01953125 1128.93188477 C-439.44572059 1124.33397444 -434.81398869 1119.87983715 -429.88845825 1115.65914917 C-426.45548806 1112.6430329 -423.25263858 1109.3950457 -420.02734375 1106.16015625 C-419.30059952 1105.43436874 -418.57385529 1104.70858124 -417.8250885 1103.96080017 C-416.30037704 1102.43676444 -414.7769085 1100.91148431 -413.25463867 1099.38500977 C-410.94366109 1097.06867537 -408.62739229 1094.75772922 -406.31054688 1092.44726562 C-404.8199918 1090.95604966 -403.329747 1089.46452347 -401.83984375 1087.97265625 C-401.15736069 1087.29219742 -400.47487762 1086.61173859 -399.77171326 1085.91065979 C-396.59174985 1082.71537787 -393.51193534 1079.48319764 -390.57055664 1076.06616211 C-386.60764222 1071.47850679 -382.33854259 1067.23108174 -378.03125 1062.96875 C-376.77254089 1061.71572083 -376.77254089 1061.71572083 -375.48840332 1060.43737793 C-371.9314548 1056.89663871 -368.3685388 1053.36192676 -364.80615234 1049.82666016 C-362.19159836 1047.2302794 -359.58011816 1044.63083434 -356.96875 1042.03125 C-356.17376099 1041.24455933 -355.37877197 1040.45786865 -354.55969238 1039.64733887 C-350.36291794 1035.46886075 -346.35156397 1031.20282683 -342.4888916 1026.71374512 C-340.75919317 1024.72282634 -338.94559714 1022.84601207 -337.0625 1021 C-336.39476563 1020.34 -335.72703125 1019.68 -335.0390625 1019 C-333.6796875 1017.66666667 -332.3203125 1016.33333333 -330.9609375 1015 C-326.98924924 1011.07431586 -323.23410521 1007.04347929 -319.58984375 1002.8125 C-317.49900718 1000.42884357 -315.27112315 998.21135675 -313 996 C-309.37118478 992.41510388 -305.9593714 988.737064 -302.64453125 984.86328125 C-300.48638054 982.41806061 -298.17047943 980.15783074 -295.84350586 977.87475586 C-294.06287078 976.06393652 -292.39783704 974.1985542 -290.7421875 972.2734375 C-287.13634763 968.12605426 -283.40141599 964.11676371 -279.625 960.125 C-274.7477214 954.94662532 -269.91597932 949.7379089 -265.1796875 944.4296875 C-262.60174291 941.55606467 -259.98922646 938.71557214 -257.375 935.875 C-252.22594931 930.2688603 -247.19596394 924.57753768 -242.2578125 918.78515625 C-241.23455265 917.58578591 -240.21110963 916.38657183 -239.1875 915.1875 C-238.67026367 914.58139893 -238.15302734 913.97529785 -237.62011719 913.35083008 C-234.4151062 909.60948459 -231.14798497 905.9389307 -227.8125 902.3125 C-223.76579031 897.90378433 -219.97246285 893.33934325 -216.21484375 888.68359375 C-214.04367173 886.05291443 -211.79758643 883.52057576 -209.5 881 C-205.6390781 876.75832974 -201.99450297 872.37966073 -198.38671875 867.921875 C-195.7760927 864.72588762 -193.11268932 861.57937757 -190.4375 858.4375 C-186.6152572 853.93981978 -182.87182934 849.39327228 -179.20703125 844.765625 C-177.50968155 842.63868059 -175.79909946 840.52632863 -174.07421875 838.421875 C-167.84070609 830.8121076 -161.74668867 823.12148213 -155.80371094 815.2824707 C-152.29751419 810.66675138 -148.71182076 806.12806927 -145.0625 801.625 C-138.70611337 793.75383737 -132.74284109 785.60770894 -126.78222656 777.43505859 C-125.02865235 775.03914775 -123.26293372 772.65277177 -121.4921875 770.26953125 C-86.09922631 722.6163928 -53.77054159 672.4763162 -26 620 C-25.24493164 618.58243408 -25.24493164 618.58243408 -24.47460938 617.13623047 C18.06719789 537.19968312 48.75592356 449.4605642 53.1875 334.1875 C53.18689575 333.18921173 53.1862915 332.19092346 53.18566895 331.16238403 C55.39957535 260.01559533 55.39957535 260.01559533 30 197 C26.62482752 195.74371609 26.62482752 195.74371609 23.42626953 196.97583008 Z M-1427 3503 C-1426 3505 -1426 3505 -1426 3505 Z " fill="#040707" transform="translate(5949,1148)"/>
<path d="M0 0 C0.66189835 0.15905319 1.32379669 0.31810638 2.00575256 0.48197937 C86.21872945 20.69300426 171.00083205 37.54776936 560.5 74.1875 C561.54352631 74.22452026 562.58705261 74.26154053 563.66220093 74.29968262 C571.77363349 74.58036906 579.88616092 74.8021204 588 75 C588.83821793 75.02056835 589.67643585 75.0411367 590.54005432 75.06232834 C625.61074061 75.91427553 660.66966334 76.20409515 695.75 76.1875 C697.02768879 76.18723312 698.30537758 76.18696625 699.62178421 76.18669128 C750.77087009 76.17338222 801.87361805 75.51078055 853 74 C853.99544327 73.97086014 854.99088654 73.94172028 856.01649475 73.91169739 C938.17361146 71.5045188 1020.26564314 67.54842143 1102.36507988 63.70688248 C1135.99138627 62.13352968 1169.6191829 60.59912532 1203.25 59.125 C1204.99153162 59.04864004 1204.99153162 59.04864004 1206.7682457 58.97073746 C1240.37834576 57.49895499 1273.99051335 56.04327375 1307.62042236 55.1000061 C1311.30710839 54.99091226 1314.99303818 54.8645635 1318.67919922 54.73901367 C1350.31527395 53.71102347 1381.96617024 53.81233657 1413.61507207 53.81488907 C1419.14297935 53.81458527 1424.67083762 53.80641949 1430.19873047 53.79418945 C1468.1794471 53.71214116 1506.05941044 53.99411352 1544 56 C1544.75047356 56.03894505 1545.50094711 56.07789009 1546.27416229 56.11801529 C1554.96082299 56.57008009 1563.63739947 57.11505457 1572.3125 57.75 C1573.4622934 57.83236908 1574.61208679 57.91473816 1575.79672241 57.99960327 C1667.94811679 64.66611991 1756.32151521 81.82264359 1887 129 C1887.9517511 129.39545013 1887.9517511 129.39545013 1888.92272949 129.79888916 C1907.10921626 137.3724572 1924.93552206 145.60923443 1942.6015625 154.32421875 C1945.84451542 155.92333002 1949.09357173 157.50938992 1952.34375 159.09375 C1966.19810432 165.8876695 1979.66107626 173.2469096 1993 181 C1994.38034424 181.79857422 1994.38034424 181.79857422 1995.78857422 182.61328125 C2038.14802913 207.16429266 2078.15319458 235.3363172 2115.40576172 267.10888672 C2118.85198751 270.04567982 2122.34886204 272.90989977 2125.875 275.75 C2129.58596484 278.7681798 2133.01556348 281.89363446 2136.3359375 285.33203125 C2138.09033743 287.09054949 2139.92433565 288.69890935 2141.8125 290.3125 C2145.02333755 293.07618029 2148.02267165 295.98619596 2151 299 C2153.91626603 301.95183025 2156.84605835 304.80388859 2160 307.5 C2166.95145496 313.46842092 2173.27312178 320.04645065 2179.22265625 327.00390625 C2181.23268777 329.26132626 2183.34832953 331.37735713 2185.5 333.5 C2188.89268399 336.85256779 2192.09100684 340.29475682 2195.1953125 343.9140625 C2197.21651276 346.25025501 2199.29378839 348.52964851 2201.375 350.8125 C2205.26924618 355.12774576 2208.96654724 359.57091755 2212.62109375 364.08984375 C2214.72929309 366.66883965 2216.87274687 369.2090068 2219.03857422 371.73925781 C2224.41739713 378.0286319 2229.56456023 384.46532474 2234.546875 391.07421875 C2236.1819931 393.24118978 2237.8257027 395.40153562 2239.46875 397.5625 C2268.75401131 436.20554518 2294.12852253 477.28244936 2317 520 C2317.52207031 520.97420898 2318.04414063 521.94841797 2318.58203125 522.95214844 C2327.33658879 539.35895609 2335.37486617 556.04041232 2343 573 C2343.78842285 574.74845215 2343.78842285 574.74845215 2344.59277344 576.53222656 C2371.06517177 635.55345681 2391.10087372 697.25705914 2406.51617432 760.03082275 C2406.98035245 761.92003418 2407.44786646 763.80842504 2407.91552734 765.69677734 C2430.55270103 857.66895601 2444.77003233 953.23715901 2437 1048 C2436.9391925 1048.7490863 2436.87838501 1049.49817261 2436.81573486 1050.2699585 C2433.2103036 1094.18866867 2426.47632678 1137.77330619 2418 1181 C2417.8287561 1181.87342041 2417.65751221 1182.74684082 2417.4810791 1183.64672852 C2411.51115688 1213.96377065 2404.46929372 1244.02020837 2397 1274 C2396.64162048 1275.43865417 2396.64162048 1275.43865417 2396.27600098 1276.90637207 C2373.85883594 1366.64840449 2345.3214589 1454.95278576 2315.28549194 1542.40794373 C2312.42804338 1550.73349286 2309.59844629 1559.06833548 2306.77734375 1567.40625 C2306.55358189 1568.06757242 2306.32982002 1568.72889484 2306.0992775 1569.41025734 C2304.96046267 1572.77631832 2303.82195984 1576.14248475 2302.68359375 1579.50869751 C2300.43546169 1586.15617033 2298.18496735 1592.80284315 2295.93359375 1599.44921875 C2295.71774502 1600.08643545 2295.50189629 1600.72365215 2295.27950668 1601.38017845 C2291.22611623 1613.34474573 2287.15002464 1625.30144482 2283.06118774 1637.25393677 C2277.84810409 1652.49381635 2272.67154469 1667.7459792 2267.5 1683 C2261.69878326 1700.11061324 2255.88619668 1717.21717632 2250.04150391 1734.31298828 C2245.17885211 1748.5367427 2240.33626318 1762.76725256 2235.5 1777 C2229.75954715 1793.8930487 2224.00751329 1810.78205972 2218.23608398 1827.66455078 C2215.18196988 1836.60005844 2212.13610326 1845.5382933 2209.1015625 1854.48046875 C2203.13443567 1872.05837691 2197.15149664 1889.62817749 2190.99752808 1907.1416626 C2183.18170227 1929.38660013 2175.6575591 1951.72763205 2168.13379288 1974.07255936 C2161.34550494 1994.23213165 2154.5407024 2014.38150657 2147.47314453 2034.4453125 C2141.32544875 2051.91059977 2135.41577975 2069.45520865 2129.5 2087 C2122.93184324 2106.47922472 2116.32944798 2125.9424586 2109.50976562 2145.33544922 C2103.7075407 2161.84571284 2098.09752671 2178.41956243 2092.5 2195 C2086.23213709 2213.56561844 2079.91345159 2232.11022834 2073.421875 2250.59912109 C2068.18071086 2265.53241607 2063.07331331 2280.50890922 2058 2295.5 C2052.23747162 2312.5268221 2046.40546016 2329.52599431 2040.45849609 2346.48925781 C2035.55995664 2360.46642373 2030.75738988 2374.47419596 2026 2388.5 C2021.0446578 2403.10676739 2016.03795659 2417.69326331 2010.9375 2432.25 C2004.63455723 2450.23871582 1998.43557256 2468.2622975 1992.25611877 2486.29369736 C1985.03446772 2507.36597904 1977.78995387 2528.42920557 1970.43188477 2549.4543457 C1969.84517107 2551.13100682 1969.25850131 2552.80768331 1968.671875 2554.484375 C1968.38102524 2555.31567429 1968.09017548 2556.14697357 1967.79051208 2557.00346375 C1964.20378682 2567.26433704 1960.65585686 2577.53864598 1957.10449219 2587.8117981 C1950.08562337 2608.11494072 1943.02908786 2628.40420925 1935.91690063 2648.67483521 C1933.3140046 2656.09677287 1930.72313771 2663.52288606 1928.1328125 2670.94921875 C1917.67560962 2700.91670642 1907.09322842 2730.8354436 1896.34066772 2760.69856262 C1893.74978681 2767.89957865 1891.17994146 2775.10785698 1888.62109375 2782.3203125 C1887.9275924 2784.27263108 1887.23407073 2786.22494245 1886.54052734 2788.17724609 C1885.5661061 2790.92061666 1884.59275089 2793.66433534 1883.62335205 2796.40948486 C1875.38152332 2819.74699048 1875.38152332 2819.74699048 1871.3125 2823.4375 C1842.95310699 2836.81457217 1799.34825236 2821.03982188 1772.24316406 2811.47583008 C1743.06030868 2800.85106925 1703.67059236 2784.98725352 1688.79296875 2755.6171875 C1686.6673999 2748.60176322 1688.80932882 2742.25215525 1690.83203125 2735.5 C1691.13471924 2734.46287369 1691.43740723 2733.42574738 1691.74926758 2732.35719299 C1692.76076662 2728.90190045 1693.7863083 2725.45095515 1694.8125 2722 C1695.54244089 2719.52221013 1696.27183972 2717.04426052 1697.00073242 2714.56616211 C1699.1273885 2707.35139624 1701.27179114 2700.14201228 1703.42279053 2692.93447113 C1703.98426566 2691.05273238 1704.5451203 2689.17080852 1705.10595703 2687.28887939 C1730.2408934 2602.9691112 1756.38391869 2518.94563415 1832.91845703 2277.47851562 C1834.67182589 2272.02249097 1836.42301711 2266.56577007 1838.17356873 2261.10884094 C1855.43588176 2207.29970937 1872.81201398 2153.52821334 1890.50263232 2099.85823721 C1891.42214709 2097.06857524 1892.34153983 2094.2788731 1893.26081932 2091.4891336 C1893.72845858 2090.06999905 1894.19614793 2088.65088101 1894.66390431 2087.23178506 C1897.62314127 2078.25188351 1900.56814741 2069.26746485 1903.49497986 2060.27694702 C1912.78783738 2031.73639446 1922.20339733 2003.2385115 1931.70015574 1974.76520729 C1933.63231404 1968.97134215 1935.56295541 1963.17697149 1937.49386597 1957.38269043 C1940.72807346 1947.67827164 1943.96351383 1937.97426458 1947.19970703 1928.27050781 C1950.89836637 1917.1799795 1954.59485465 1906.08872935 1958.29023182 1894.99710703 C1961.51340485 1885.32299761 1964.73778585 1875.6492914 1967.96311367 1865.97590017 C1969.86759392 1860.26398859 1971.77171205 1854.55195715 1973.67471695 1848.83955383 C1982.26981824 1823.04099493 1990.93898716 1797.27022637 1999.75955045 1771.54782903 C2002.33900865 1764.02089015 2004.88891072 1756.48407332 2007.43359375 1748.9453125 C2007.87618923 1747.63449898 2008.31879481 1746.32368886 2008.76141071 1745.01288223 C2009.56497323 1742.63281296 2010.36847882 1740.25272446 2011.17193604 1737.87261963 C2017.85512622 1718.0821899 2024.58920301 1698.31230378 2031.51046753 1678.60357666 C2036.95066098 1663.10606658 2042.23878291 1647.55909509 2047.5 1632 C2053.67793484 1613.73387428 2059.92340218 1595.49486041 2066.30126953 1577.29760742 C2069.74338904 1567.47491324 2073.16435899 1557.64539608 2076.5546875 1547.8046875 C2076.94731781 1546.66507065 2077.33994812 1545.5254538 2077.74447632 1544.3513031 C2078.54893581 1542.01606131 2079.35336877 1539.68081037 2080.15777588 1537.34555054 C2086.56677439 1518.74312948 2093.03481074 1500.16403777 2099.625 1481.625 C2107.17768275 1460.37536975 2114.61731124 1439.08831859 2121.96861267 1417.76817322 C2123.91120141 1412.13780472 2125.86842601 1406.51289598 2127.84146118 1400.89312744 C2151.92351575 1332.25201371 2169.60497008 1260.82064539 2174 1188 C2174.05639648 1187.07477539 2174.11279297 1186.14955078 2174.17089844 1185.19628906 C2179.41886032 1094.73881582 2162.15691145 1005.98129294 2106 902 C2105.27417725 900.86981445 2105.27417725 900.86981445 2104.53369141 899.71679688 C2093.34000904 882.39367962 2081.24261469 865.8103548 2068 850 C2067.50677246 849.40767578 2067.01354492 848.81535156 2066.50537109 848.20507812 C2055.34347766 834.83316706 2043.3498166 822.27513027 2031.0625 809.9375 C2030.28189209 809.15221924 2029.50128418 808.36693848 2028.69702148 807.55786133 C2024.51150432 803.38396191 2020.24173761 799.37336671 2015.76196289 795.5168457 C2013.53061307 793.59591229 2011.36048433 791.61151107 2009.1875 789.625 C1982.21507615 765.32108079 1951.91060002 743.92791943 1921 725 C1920.36223633 724.60796387 1919.72447266 724.21592773 1919.06738281 723.81201172 C1880.55177768 700.20204794 1840.40737766 679.97013634 1799 662 C1798.32712952 661.7071814 1797.65425903 661.41436279 1796.96099854 661.1126709 C1763.38829378 646.50929239 1729.05032937 633.96150973 1694.21722412 622.71887207 C1692.01852608 622.00600655 1689.82258989 621.28523924 1687.62744141 620.56152344 C1591.35219666 588.840161 1491.06215375 568.73630273 1128.8928833 530.13537598 C1126.16115037 530.00754123 1123.42992056 529.87229988 1120.69873047 529.73339844 C1116.34151055 529.51180316 1111.98373519 529.31449846 1107.625 529.125 C1105.84258911 529.0326709 1105.84258911 529.0326709 1104.02416992 528.93847656 C1102.97720947 528.89948242 1101.93024902 528.86048828 1100.8515625 528.8203125 C1099.97322754 528.78180176 1099.09489258 528.74329102 1098.18994141 528.70361328 C1095.93837746 528.8380869 1095.93837746 528.8380869 1094.19677734 530.26123047 C1092.62201965 532.19735403 1092.62201965 532.19735403 1093 536 C1093.6071283 536.10989761 1094.21425659 536.21979523 1094.83978271 536.33302307 C1116.689355 540.30234611 1138.47340546 544.58818807 1160.25 548.9375 C1161.17547764 549.12224758 1162.10095528 549.30699516 1163.05447769 549.49734116 C1213.8742833 559.64802402 1264.4504013 570.76849305 1314.76519775 583.2010498 C1318.11032608 584.02724897 1321.45628763 584.8500214 1324.80224609 585.67285156 C1420.68095504 609.30460983 1515.84981904 637.54334248 1795.25634766 760.43115234 C1797.91763663 761.95290381 1800.58779593 763.45761188 1803.26171875 764.95703125 C1830.14161312 780.07507353 1855.99451945 796.95964539 1881 815 C1881.76554199 815.55155762 1882.53108398 816.10311523 1883.31982422 816.67138672 C1893.90291875 824.32012681 1904.20251114 832.23421813 1914.25878906 840.56298828 C1916.7815772 842.64503132 1919.3309177 844.69406795 1921.875 846.75 C1926.17101484 850.26667782 1930.32063937 853.91834282 1934.41796875 857.6640625 C1936.53009335 859.57488022 1938.66306262 861.45200971 1940.8125 863.3203125 C1944.89121472 866.88173844 1948.86743664 870.5415528 1952.8125 874.25 C1953.504646 874.9004126 1954.19679199 875.5508252 1954.90991211 876.22094727 C1962.61503666 883.48833141 1970.26498296 890.79258714 1977.140625 898.86328125 C1978.99479216 900.99401536 1980.91190463 903.05702508 1982.84301758 905.11791992 C1988.7845364 911.4821392 1994.1930124 918.1510492 1999.49169922 925.0546875 C2001.08988518 927.11592831 2002.71586898 929.15277354 2004.34765625 931.1875 C2026.54769495 959.01035062 2045.04536479 990.83241164 2058 1024 C2058.32564941 1024.81952148 2058.65129883 1025.63904297 2058.98681641 1026.48339844 C2069.101827 1052.13833999 2075.31802496 1078.71400529 2079 1106 C2079.19698486 1107.45237061 2079.19698486 1107.45237061 2079.39794922 1108.93408203 C2081.09630814 1122.23273258 2081.17279671 1135.55213278 2081.1875 1148.9375 C2081.18926743 1150.19252319 2081.18926743 1150.19252319 2081.19107056 1151.47290039 C2081.19068471 1153.88697293 2081.18139417 1156.30081135 2081.16796875 1158.71484375 C2081.16675018 1159.4317186 2081.16553162 1160.14859344 2081.16427612 1160.88719177 C2081.12064366 1165.6636863 2080.66505035 1170.26902088 2080 1175 C2071.91200989 1172.8252105 2064.20456952 1169.80074078 2056.4380188 1166.70657349 C1957.14526967 1127.260107 1853.51988561 1098.21984126 1363.70703125 1021.25 C1362.78670325 1021.16621094 1361.86637526 1021.08242188 1360.91815853 1020.99609375 C1329.71455402 1018.15586947 1298.49725602 1015.51231078 1267.265625 1013 C1266.24376516 1012.91776688 1265.22190531 1012.83553375 1264.16908002 1012.75080872 C1246.43354133 1011.32419103 1228.69703123 1009.90974427 1210.96014404 1008.5 C1196.37388485 1007.34060284 1181.78802157 1006.17642754 1167.203125 1005 C1166.18851031 1004.91816278 1165.17389562 1004.83632557 1164.12853503 1004.75200844 C1133.69580201 1002.29395274 1103.28757214 999.62711546 1072.89453125 996.71875 C1072.03383183 996.63652191 1071.17313242 996.55429382 1070.2863512 996.46957397 C968.68201359 986.75463429 866.90331974 974.29243317 536.68994141 862.51708984 C533.78844094 860.88068361 530.87055312 859.27649345 527.94921875 857.67578125 C509.10851707 847.31134933 490.74263622 836.15653578 473 824 C471.80098205 823.18980692 470.60174788 822.37993377 469.40234375 821.5703125 C448.83115138 807.62361049 428.80096768 792.71181671 409.9453125 776.51171875 C407.14620921 774.12468504 404.30314909 771.80639849 401.4375 769.5 C396.37032215 765.3783014 391.57433941 761.01087398 386.7890625 756.5703125 C384.4549045 754.41922571 382.09253383 752.32074342 379.6875 750.25 C376.59840355 747.57490617 373.72366324 744.74794662 370.86376953 741.83129883 C369.11357056 740.11159192 367.3113954 738.52093611 365.44140625 736.93359375 C360.20528754 732.37924251 355.33211148 727.47807341 350.4375 722.5625 C349.53064453 721.65951172 348.62378906 720.75652344 347.68945312 719.82617188 C343.12643392 715.25653481 338.68603404 710.64468007 334.50610352 705.72045898 C332.90991284 703.89709123 331.22995374 702.19628129 329.5 700.5 C326.46405075 697.51127663 323.65491341 694.38293521 320.875 691.15625 C318.82640906 688.80037042 316.72796998 686.4949254 314.625 684.1875 C310.72636603 679.86739209 307.02496142 675.41928619 303.3671875 670.89453125 C301.316154 668.38658434 299.22589433 665.91920235 297.11328125 663.46313477 C290.65067259 655.93461232 284.6362007 648.10026541 278.65722656 640.18505859 C277.02915341 638.03843887 275.38839061 635.90227004 273.7421875 633.76953125 C261.20692894 617.52496783 249.39650557 600.85248463 238.0625 583.75 C237.21517807 582.47456833 237.21517807 582.47456833 236.35073853 581.17337036 C223.01289919 561.09568918 210.09096267 540.85861197 198 520 C197.49758789 519.13552246 196.99517578 518.27104492 196.47753906 517.38037109 C188.37055313 503.40544642 180.60143445 489.25564966 173 475 C172.5265918 474.11248047 172.05318359 473.22496094 171.56542969 472.31054688 C155.99713166 443.01713198 141.30083557 413.29525603 127.87060547 382.96258545 C127.01369815 381.03087941 126.15221477 379.10128601 125.2890625 377.17236328 C83.52504807 283.78790383 50.36654241 186.46915638 13 54 C12.69499573 52.88050964 12.38999146 51.76101929 12.07574463 50.60760498 C10.20561518 43.73346211 8.34815615 36.85603619 6.50546265 29.9744873 C5.9232043 27.80077123 5.33926776 25.62750393 4.75357056 23.45471191 C3.94634007 20.45458456 3.14760727 17.45233068 2.3515625 14.44921875 C2.1117012 13.56209702 1.8718399 12.67497528 1.62471008 11.76097107 C1.40904892 10.93968216 1.19338776 10.11839325 0.97119141 9.2722168 C0.78247467 8.56365036 0.59375793 7.85508392 0.39932251 7.12504578 C-0.0539615 4.71283699 -0.06656899 2.44891206 0 0 Z M120 97 C120.59036954 102.53693896 121.56230665 107.73002248 123.0390625 113.09375 C123.24300629 113.84354126 123.44695007 114.59333252 123.65707397 115.36584473 C124.08952024 116.94654009 124.52500213 118.52640782 124.96337891 120.10546875 C125.61473803 122.46285999 126.24723163 124.82477022 126.87890625 127.1875 C135.6941198 159.49072094 153.48471486 186.03723575 182.62890625 203.15625 C196.51670856 210.99379636 211.27607302 214.80650207 226.75 218.125 C227.60681366 218.3108667 228.46362732 218.4967334 229.34640503 218.68823242 C316.84740161 237.61593206 405.7366289 250.12775035 598.79329681 266.06180191 C600.96361652 266.18202254 603.13382187 266.30414373 605.30401611 266.42660522 C616.19911133 267.03643729 627.09766355 267.53903421 638 268 C639.0091169 268.04340263 640.0182338 268.08680527 641.05792999 268.13152313 C686.9303972 270.090268 732.76172221 270.31495731 778.66884464 270.25713855 C785.32189367 270.24962448 791.97488289 270.25229848 798.62792969 270.26074219 C847.88686181 270.32157451 897.07707027 269.77599831 946.30949402 268.12355804 C949.6838326 268.01058528 953.05825067 267.90068147 956.43273926 267.79229736 C967.72700893 267.4274619 979.01849907 267.01150992 990.30913162 266.54777908 C993.13286468 266.43205485 995.9566717 266.31825648 998.78048706 266.20455933 C1056.73573128 263.85748837 1114.65807065 260.73526922 1172.58424377 257.77255249 C1175.4480003 257.62608852 1178.31175685 257.47962511 1181.17551351 257.33316374 C1183.07326046 257.23609903 1184.97100671 257.1390204 1186.86875224 257.04192781 C1309.9800385 250.74357559 1309.9800385 250.74357559 1364.625 248.75 C1366.0844252 248.69672043 1366.0844252 248.69672043 1367.57333374 248.6423645 C1373.23769068 248.43983673 1378.90246735 248.26227889 1384.56811523 248.1000061 C1387.04134847 248.02793538 1389.51448351 247.95246666 1391.98754883 247.87484741 C1420.27996376 246.98822487 1448.56208026 246.81222418 1476.8671875 246.81469727 C1481.76761591 246.81477822 1486.66795022 246.80786128 1491.56835938 246.79418945 C1540.13929592 246.6610111 1588.58519481 247.96103763 1637 252 C1637.82167664 252.0681189 1638.64335327 252.13623779 1639.4899292 252.2064209 C1704.52818888 257.64703031 1768.79013859 269.08247346 1831 289 C1831.68626465 289.21893921 1832.3725293 289.43787842 1833.07958984 289.66345215 C1895.00887654 309.44778557 1955.48041542 334.88287619 2011.30224609 368.38574219 C2013.88644662 369.93205295 2016.48185768 371.45730303 2019.08203125 372.9765625 C2045.99029349 388.77932157 2071.3272103 406.940623 2096 426 C2097.02383789 426.78769775 2097.02383789 426.78769775 2098.06835938 427.59130859 C2109.73245372 436.57507867 2120.88386188 446.10579441 2131.78515625 456 C2133.77412502 457.79603529 2135.78563194 459.55953303 2137.8125 461.3125 C2148.10115519 470.30077593 2157.91836861 479.75409726 2167.55908203 489.42871094 C2169.39110995 491.2661576 2171.22850605 493.0981165 2173.06640625 494.9296875 C2178.40402018 500.26428745 2183.69073956 505.58999972 2188.58544922 511.34033203 C2190.77106006 513.90467143 2193.07852555 516.34706571 2195.375 518.8125 C2199.66430703 523.45557189 2203.72678619 528.23441617 2207.69140625 533.16015625 C2209.77108772 535.71841078 2211.89094876 538.23183603 2214.03491211 540.73583984 C2219.4700644 547.08773061 2224.65530197 553.58821885 2229.68896484 560.26367188 C2231.05361208 562.07100356 2232.42694872 563.87151814 2233.80078125 565.671875 C2247.38143075 583.53995419 2259.92306414 602.0888545 2272 621 C2272.56074219 621.87769043 2273.12148438 622.75538086 2273.69921875 623.65966797 C2282.01841144 636.74362393 2289.74585215 650.12291801 2297.19970703 663.71679688 C2298.39691208 665.90014559 2299.59839268 668.08115549 2300.80419922 670.25976562 C2318.08482 701.52371056 2332.59682556 733.91026658 2346 767 C2346.97904222 763.93317836 2347.0009079 762.09815733 2346.05053711 759.03393555 C2345.8147998 758.25767822 2345.5790625 757.4814209 2345.33618164 756.68164062 C2345.06926514 755.84181641 2344.80234863 755.00199219 2344.52734375 754.13671875 C2344.25341797 753.24960205 2343.97949219 752.36248535 2343.69726562 751.44848633 C2342.78930349 748.52426575 2341.86463483 745.60569438 2340.9375 742.6875 C2340.46390549 741.18263535 2340.46390549 741.18263535 2339.98074341 739.64736938 C2318.66089899 671.95778681 2291.04605197 605.81439527 2254.65380859 544.78125 C2253.11611064 542.19526609 2251.59630192 539.59974889 2250.08203125 537 C2230.25326675 503.16902983 2207.05043434 471.13230363 2182 441 C2181.51160645 440.41250977 2181.02321289 439.82501953 2180.52001953 439.21972656 C2175.15120322 432.78147523 2169.67335427 426.455001 2164.03515625 420.25 C2162.22622457 418.25010625 2160.45108199 416.22730568 2158.6875 414.1875 C2149.83342478 404.05071212 2140.53040817 394.36525898 2130.99853516 384.86816406 C2129.23351456 383.1085652 2127.47398867 381.34359603 2125.71484375 379.578125 C2120.51400278 374.37422791 2115.31155262 369.23886177 2109.70849609 364.46337891 C2106.95411583 362.10416837 2104.33211667 359.60558032 2101.6875 357.125 C2096.86763923 352.64132731 2091.92496022 348.3837577 2086.7890625 344.26171875 C2084.3131672 342.25395491 2081.88601604 340.19948333 2079.47021484 338.12011719 C2071.95284724 331.66351067 2064.15106593 325.6215777 2056.22705078 319.67382812 C2054.77190153 318.58015313 2053.31961713 317.48265315 2051.87060547 316.38085938 C1981.18756406 262.6416038 1900.40247356 222.97947018 1560.0625 148.3125 C1558.49335846 148.22109238 1558.49335846 148.22109238 1556.89251709 148.12783813 C1530.4786597 146.61249407 1504.08549114 145.84244841 1477.62890625 145.83203125 C1475.66504129 145.82895534 1473.70117631 145.8258746 1471.7373119 145.82246423 C1463.39804708 145.80837958 1455.05880862 145.80758303 1446.71953487 145.81152678 C1444.54856048 145.81250629 1442.37758617 145.81315615 1440.20661163 145.81375504 C1397.77761917 145.8275418 1355.39771124 146.03468064 1312.99841309 147.79425049 C1307.48913868 148.0223441 1301.97943587 148.23925437 1296.46972656 148.45654297 C1247.43434685 150.39733043 1198.41079269 152.60037163 1149.38964033 154.86832285 C1146.53607651 155.00031881 1143.68250771 155.13220644 1140.82893753 155.26406479 C1115.28350247 156.44435098 1115.28350247 156.44435098 1089.73876953 157.63970947 C1038.98291604 160.03023951 988.22544983 162.24446392 937.44034433 163.91949177 C935.82127986 163.97290555 934.20222148 164.02650468 932.58316946 164.08029461 C880.96538622 165.79478171 829.38653808 166.32300825 777.74183798 166.25713968 C771.11758494 166.24956352 764.49339154 166.25235496 757.86914062 166.26074219 C710.87365848 166.3186154 663.96060138 165.91929266 617 164 C616.01377151 163.96006172 615.02754303 163.92012344 614.01142883 163.87897491 C603.06887966 163.43239999 592.13174403 162.91175112 581.19674683 162.30835724 C578.89663812 162.1818134 576.59640481 162.05774095 574.29614258 161.934021 C482.13383889 156.95704515 390.10391189 147.94223375 134.84033203 99.76074219 C134.04977921 99.57168304 133.25922638 99.3826239 132.44471741 99.18783569 C130.9918901 98.84005753 129.53971563 98.48953516 128.08836365 98.13565063 C125.30663022 97.47088116 122.87361902 97 120 97 Z M2347 767 C2348 770 2348 770 2348 770 Z " fill="#040707" transform="translate(2013,4359)"/>
</svg>
